<svg width="11" height="18" viewBox="0 0 11 18" fill="none" xmlns="http://www.w3.org/2000/svg">
<path d="M10.4692 8.17214L2.10969 0.207143C1.97021 0.0741756 1.7849 -3.89772e-07 1.59219 -3.98195e-07C1.39949 -4.06619e-07 1.21418 0.0741756 1.07469 0.207143L1.06569 0.216143C0.99784 0.280603 0.94381 0.358192 0.90689 0.444192C0.869969 0.530191 0.85093 0.622803 0.85093 0.716393C0.85093 0.809982 0.869969 0.902594 0.90689 0.988593C0.94381 1.07459 0.99784 1.15218 1.06569 1.21664L8.93769 8.71664L1.06569 16.2136C0.997839 16.2781 0.94381 16.3557 0.906889 16.4417C0.869969 16.5277 0.850929 16.6203 0.850929 16.7139C0.850929 16.8075 0.869969 16.9001 0.906889 16.9861C0.94381 17.0721 0.997839 17.1497 1.06569 17.2141L1.07469 17.2231C1.21418 17.3561 1.39949 17.4303 1.59219 17.4303C1.7849 17.4303 1.97021 17.3561 2.10969 17.2231L10.4692 9.25814C10.5427 9.1881 10.6012 9.10385 10.6412 9.01051C10.6812 8.91717 10.7018 8.81669 10.7018 8.71514C10.7018 8.6136 10.6812 8.51311 10.6412 8.41977C10.6012 8.32643 10.5427 8.24219 10.4692 8.17214Z" fill="#DB46D5"/>
</svg>
